<?xml version="1.0" encoding="iso-8859-1"?>
<!-- Generator: Adobe Illustrator 19.0.0, SVG Export Plug-In . SVG Version: 6.00 Build 0)  -->
<svg version="1.1" id="Layer_1" xmlns="http://www.w3.org/2000/svg" xmlns:xlink="http://www.w3.org/1999/xlink" x="0px" y="0px"
	 viewBox="0 0 490.001 490.001" style="enable-background:new 0 0 490.001 490.001;" xml:space="preserve">
<g>
	<g id="XMLID_42_">
		<g>
			<path style="fill:#FFD248;" d="M350,420l-70,60v-60V281.97c10.82,28.1,38.08,48.03,70,48.03s59.18-19.93,70-48.03V420v60L350,420
				z"/>
			<path style="fill:#31C0D8;" d="M420,281.97c-10.82,28.1-38.08,48.03-70,48.03s-59.18-19.93-70-48.03c-3.23-8.37-5-17.46-5-26.97
				c0-41.43,33.57-75,75-75s75,33.57,75,75C425,264.51,423.23,273.6,420,281.97z"/>
			<path style="fill:#FFFFFF;" d="M480,10v410h-60V281.97c3.23-8.37,5-17.46,5-26.97c0-41.43-33.57-75-75-75s-75,33.57-75,75
				c0,9.51,1.77,18.6,5,26.97V420h-0.01H10V10H480z"/>
		</g>
		<g>
			<path d="M480,0H10C4.477,0,0,4.477,0,10v410c0,5.523,4.477,10,10,10h260v50c0,3.905,2.273,7.453,5.821,9.085
				c3.548,1.633,7.722,1.049,10.686-1.492L350,433.171l63.492,54.422c1.849,1.584,4.166,2.407,6.51,2.407
				c1.415,0,2.84-0.3,4.177-0.915c3.548-1.632,5.821-5.18,5.821-9.085v-50h50c5.523,0,10-4.477,10-10V10C490,4.477,485.523,0,480,0z
				 M289.33,278.37c-2.873-7.445-4.33-15.308-4.33-23.37c0-35.841,29.159-65,65-65s65,29.159,65,65
				c0,8.063-1.457,15.925-4.332,23.377c-0.211,0.547-0.437,1.084-0.662,1.623H410v0.016C399.991,304.001,376.11,320,350,320
				c-26.107,0-49.987-15.996-60-39.985V280h-0.006C289.769,279.459,289.541,278.919,289.33,278.37z M360,415.4V360h-20v55.4
				l-50,42.857V315.212c3.483,3.464,7.273,6.652,11.36,9.507C315.666,334.716,332.486,340,350,340s34.334-5.284,48.64-15.28
				c4.087-2.855,7.877-6.043,11.36-9.507v143.045L360,415.4z M470,410h-40V283.707c3.304-9.196,5-18.838,5-28.707
				c0-46.869-38.131-85-85-85s-85,38.131-85,85c0,9.87,1.696,19.515,5,28.706V410H20V20h450V410z"/>
			<rect x="45" y="210" width="190" height="20"/>
			<rect x="45" y="160" width="40" height="20"/>
			<rect x="155" y="60" width="180" height="20"/>
			<rect x="205" y="100" width="80" height="20"/>
			<rect x="45" y="260" width="190" height="20"/>
			<rect x="45" y="310" width="190" height="20"/>
			<rect x="45" y="360" width="130" height="20"/>
		</g>
	</g>
</g>
<g>
</g>
<g>
</g>
<g>
</g>
<g>
</g>
<g>
</g>
<g>
</g>
<g>
</g>
<g>
</g>
<g>
</g>
<g>
</g>
<g>
</g>
<g>
</g>
<g>
</g>
<g>
</g>
<g>
</g>
</svg>
